<svg xmlns="http://www.w3.org/2000/svg" width="63" height="70" viewBox="0 0 63 70"><g><g><path fill="#fff" d="M21.537 9.708V4.742A4.743 4.743 0 0 0 16.789 0a4.743 4.743 0 0 0-4.747 4.742v4.966a4.745 4.745 0 0 0 4.747 4.743 4.746 4.746 0 0 0 4.748-4.743zm28.901 0V4.742A4.743 4.743 0 0 0 45.691 0a4.743 4.743 0 0 0-4.747 4.742v4.966a4.745 4.745 0 0 0 4.747 4.743 4.745 4.745 0 0 0 4.747-4.743zm2.548 43.278H45.76V60.2h7.225zm0-12.042H45.76v7.225h7.225zm0-12.043H45.76v7.226h7.225zM40.934 52.986h-7.216V60.2h7.216zm0-12.042h-7.216v7.225h7.216zm0-12.043h-7.216v7.226h7.216zM28.89 52.986h-7.215V60.2h7.215zm0-12.042h-7.215v7.225h7.215zm0-12.043h-7.215v7.226h7.215zM16.86 52.986H9.634V60.2h7.225zm0-12.042H9.634v7.225h7.225zm0-12.043H9.634v7.226h7.225zm40.934 36.137H4.817V24.084h52.976zm4.827-.02V12.042a4.817 4.817 0 0 0-4.817-4.816h-4.817v2.408a7.226 7.226 0 0 1-14.45 0V7.225H24.083v2.408a7.224 7.224 0 0 1-7.225 7.225 7.224 7.224 0 0 1-7.225-7.225V7.225H4.817A4.817 4.817 0 0 0 0 12.041V65.02a4.818 4.818 0 0 0 4.817 4.816h52.986a4.818 4.818 0 0 0 4.817-4.816z"/></g></g></svg>