<svg xmlns="http://www.w3.org/2000/svg" width="32" height="35" viewBox="0 0 32 35"><g><g><path fill="#907543" d="M10.763 4.854V2.371a2.37 2.37 0 1 0-4.742 0v2.483a2.371 2.371 0 1 0 4.742 0zm14.451 0V2.371a2.37 2.37 0 1 0-4.742 0v2.483a2.371 2.371 0 1 0 4.742 0zm1.279 21.639H22.88v3.623h3.613zm0-6.021H22.88v3.612h3.613zm0-6.021H22.88v3.612h3.613zm-6.021 12.042h-3.613v3.623h3.613zm0-6.021h-3.613v3.612h3.613zm0-6.021h-3.613v3.612h3.613zM14.45 26.493h-3.613v3.623h3.613zm0-6.021h-3.613v3.612h3.613zm0-6.021h-3.613v3.612h3.613zM8.43 26.493H4.817v3.623H8.43zm0-6.021H4.817v3.612H8.43zm0-6.021H4.817v3.612H8.43zM28.9 32.514H2.408V12.042h26.493zm2.409 0V6.021A2.409 2.409 0 0 0 28.9 3.613h-2.408v1.204a3.613 3.613 0 0 1-7.225 0V3.613h-7.226v1.204a3.612 3.612 0 1 1-7.225 0V3.613H2.408A2.409 2.409 0 0 0 0 6.02v26.493a2.41 2.41 0 0 0 2.408 2.408h26.493a2.41 2.41 0 0 0 2.409-2.408z"/></g></g></svg>