<svg xmlns="http://www.w3.org/2000/svg" width="37" height="29" viewBox="0 0 37 29"><g><g><path fill="#907543" d="M36.8 15.525v6.9a.568.568 0 0 1-.575.575H34.5v2.3a3.451 3.451 0 0 1-3.45 3.45 3.451 3.451 0 0 1-3.45-3.45V23H9.2v2.3a3.451 3.451 0 0 1-3.45 3.45A3.451 3.451 0 0 1 2.3 25.3V23H.575A.568.568 0 0 1 0 22.425v-6.9A4.02 4.02 0 0 1 4.025 11.5h.504l1.887-7.529C6.972 1.707 9.166 0 11.5 0h13.8c2.336 0 4.529 1.707 5.085 3.971l1.888 7.529h.503a4.02 4.02 0 0 1 4.025 4.025zm-2.885 1.72a2.878 2.878 0 0 0-2.87-2.87 2.878 2.878 0 0 0-2.87 2.87 2.878 2.878 0 0 0 2.87 2.87 2.878 2.878 0 0 0 2.87-2.87zM9.271 11.5h18.257l-1.6-6.415c-.054-.197-.413-.485-.63-.485h-13.8c-.214 0-.574.288-.628.485zm-.656 5.745a2.878 2.878 0 0 0-2.87-2.87 2.878 2.878 0 0 0-2.87 2.87 2.878 2.878 0 0 0 2.87 2.87 2.878 2.878 0 0 0 2.87-2.87z"/></g></g></svg>