<svg xmlns="http://www.w3.org/2000/svg" width="24" height="39" viewBox="0 0 24 39"><g><g><path fill="#907543" d="M20.172 2.4c.936 1.984 1.43 4.25 1.43 6.6 0 .202-.004.4-.012.6H2.413c-.007-.2-.01-.398-.01-.6 0-2.35.491-4.616 1.429-6.6zM21.967.632A1.201 1.201 0 0 0 20.91 0H3.09c-.442 0-.848.242-1.057.632C.703 3.108 0 6.002 0 9c0 3.953 1.214 7.681 3.419 10.498 1.704 2.176 3.843 3.62 6.181 4.206V36H6a1.2 1.2 0 0 0 0 2.4h12a1.2 1.2 0 0 0 0-2.4h-3.6V23.704c2.339-.586 4.478-2.03 6.181-4.206C22.786 16.68 24 12.953 24 9c0-2.999-.703-5.892-2.033-8.368z"/></g></g></svg>